# xmcd CD database file
#
# Track frame offsets:
#	150
#	19372
#	37250
#	55357
#	69575
#	87407
#	100000
#	119095
#	138382
#	157240
#
# Disc length: 2285 seconds
#
# Revision: 0
# Processed by: cddbd v1.5.2PL0 Copyright (c) Steve Scherf et al.
# Submitted via: CDex 1.70beta2
#
DISCID=9708eb0a
DTITLE=Sofia Pettersson - That's amore
DYEAR=2004
DGENRE=Jazz
TTITLE0=Nobody
TTITLE1=When about to leave
TTITLE2=That's amore
TTITLE3=Miss you
TTITLE4=He's all right
TTITLE5=Music music music
TTITLE6=It's happening
TTITLE7=Fool on the hill
TTITLE8=When you're smiling
TTITLE9=Never say goodbye
EXTD=YEAR: 2004
EXTT0=
EXTT1=
EXTT2=
EXTT3=
EXTT4=
EXTT5=
EXTT6=
EXTT7=
EXTT8=
EXTT9=
PLAYORDER=
